<?xml version="1.0" standalone="no"?>
<!DOCTYPE svg PUBLIC "-//W3C//DTD SVG 20010904//EN"
 "http://www.w3.org/TR/2001/REC-SVG-20010904/DTD/svg10.dtd">
<svg version="1.0" xmlns="http://www.w3.org/2000/svg"
 width="20.000000pt" height="20.000000pt" viewBox="0 0 20.000000 20.000000"
 preserveAspectRatio="xMidYMid meet">
<metadata>
Created by potrace 1.16, written by Peter Selinger 2001-2019
</metadata>
<g transform="translate(0.000000,20.000000) scale(0.050000,-0.050000)"
fill="#000000" stroke="none">
<path d="M162 392 c-7 -5 -10 -15 -7 -23 4 -10 20 -13 65 -11 54 3 60 2 60
-16 0 -19 -31 -51 -76 -79 -18 -11 -18 -12 4 -52 24 -44 27 -71 11 -104 -10
-21 -9 -21 10 2 26 29 26 42 2 89 -22 45 -19 58 22 78 l32 16 -22 -21 c-30
-29 -29 -40 9 -100 30 -49 52 -65 29 -23 -16 30 -14 32 25 32 32 0 35 2 24 15
-7 9 -14 42 -16 74 -1 33 -7 69 -14 81 -21 39 -121 65 -158 42z"/>
</g>
</svg>
